<?xml version="1.0"?>
<svg version="1.1" xmlns="http://www.w3.org/2000/svg" width="400" height="200" style=""><path fill="#f9e3d8" d="M74.12,128.985c0,0.44-0.33,0.715-0.88,0.715l-5.5,0c-1.32,0-1.925-0.44-2.64-1.375l-11.88-15.235l-0.11,0l0,15.235c0,0.99-0.385,1.375-1.32,1.375l-4.4,0c-0.99,0-1.375-0.385-1.375-1.375l0-35.365c0-0.935,0.495-1.32,1.375-1.32l4.4,0c0.88,0,1.32,0.33,1.32,1.32l0,15.565l0.11,0l11.33-15.895c0.495-0.66,1.155-0.99,2.035-0.99l4.4,0c0.55,0,0.88,0.33,0.88,0.715c0,0.22-0.055,0.44-0.22,0.66l-12.65,16.995l14.63,17.985c0.275,0.33,0.495,0.715,0.495,0.99z"/><path fill="#" d=""/></svg>
